<?xml version="1.0" encoding="UTF-8"?>
<svg width="110px" height="32px" viewBox="0 0 110 32" version="1.1" xmlns="http://www.w3.org/2000/svg" xmlns:xlink="http://www.w3.org/1999/xlink">
    <!-- Generator: Sketch 59.1 (86144) - https://sketch.com -->
    <title>logo-feedly-full</title>
    <desc>Created with Sketch.</desc>
    <g id="Page-1" stroke="none" stroke-width="1" fill="none" fill-rule="evenodd" fill-opacity="0.8">
        <g id="exploration-13" transform="translate(-104.000000, -56.000000)" fill="#000000">
            <g id="header">
                <g id="top" transform="translate(104.000000, 56.000000)">
                    <g id="logo-feedly-full">
                        <path d="M95.4561936,6.62965375 L95.4561936,12.2083462 L99.4621959,12.2083462 L102.716576,22.2320283 L102.771398,22.2320283 L105.912956,12.2083462 L110,12.2083462 L103.994969,28.6862858 C103.132113,31.0370403 101.741692,32 99.0466586,32 C98.2394197,32 97.4337699,31.9441645 96.6281201,31.8591975 L96.6281201,31.8591975 L96.6281201,28.5446741 C97.3789476,28.6296411 98.156789,28.7154173 98.9346303,28.6862858 C99.9635421,28.5729964 100.463299,27.7532669 100.463299,26.8469519 C100.463299,26.5345969 100.409271,26.2230511 100.297243,25.9406369 L100.297243,25.9406369 L95.4561936,12.7998786 L95.4561936,26.8469519 L91.5073972,26.8469519 L91.5073972,6.62965375 L95.4561936,6.62965375 Z M90.6445415,6.62965375 L90.6445415,26.8469519 L86.8904041,26.8469519 L86.8904041,24.976868 L86.8355818,24.976868 C85.9179038,26.5637284 84.3328235,27.2426555 82.4704535,27.2426555 C78.5288079,27.2426555 76.4241074,24.1320529 76.0737212,20.5043653 L76.0737212,20.5043653 L65.7337542,20.5043653 C65.8457824,23.0808894 67.0399557,24.2129739 69.2654242,24.2129739 C70.8481209,24.2129739 72.1288975,23.2208827 72.3783788,22.3169953 L72.3783788,22.3169953 L75.8544319,22.3169953 C74.7405059,25.7998344 72.3783788,27.2426555 69.1255875,27.2426555 C64.9233372,27.2426555 62.2036732,24.5156184 61.8310403,20.5043653 L61.8310403,20.5043653 L51.6650746,20.5043653 C51.7763083,23.0808894 52.9712761,24.2129739 55.1951556,24.2129739 C56.7794413,24.2129739 58.0586288,23.2208827 58.3081101,22.3169953 L58.3081101,22.3169953 L61.7833688,22.3169953 C60.6726208,25.7998344 58.3081101,27.2426555 55.056908,27.2426555 C50.5233401,27.2426555 47.7154837,24.0713622 47.7154837,19.5405964 C47.7154837,15.1522516 50.6901907,11.8118334 55.056908,11.8118334 C59.0168277,11.8118334 61.3376394,14.5566731 61.9160547,17.9901504 C62.5310181,14.3891667 65.292792,11.8118334 69.1255875,11.8118334 C73.2817553,11.8118334 75.6319645,14.8342321 76.0578307,18.5031894 C76.3605453,14.926482 78.4851089,11.8118334 82.3878228,11.8118334 C84.0825477,11.8118334 85.7510532,12.5474052 86.6401283,13.9910355 L86.6401283,13.9910355 L86.6973342,13.9910355 L86.6973342,6.62965375 L90.6445415,6.62965375 Z M47.1036983,6.62965375 C47.7981144,6.62965375 48.5211335,6.71462078 49.1877412,6.74294312 L49.1877412,6.74294312 L49.1877412,9.74511155 C48.714998,9.68846686 48.2152408,9.6585261 47.7417031,9.6585261 C46.657969,9.6585261 46.2408426,10.1124928 46.2408426,11.3295444 L46.2408426,11.3295444 L46.2408426,12.2083462 L48.9660683,12.2083462 L48.9660683,14.8973505 L46.2408426,14.8973505 L46.2408426,26.8469519 L42.2936353,26.8469519 L42.2936353,14.8973505 L39.9299192,14.8973505 L39.9299192,12.2083462 L42.2936353,12.2083462 L42.2936353,11.0746433 C42.2936353,8.47060609 43.877921,6.62965375 47.1036983,6.62965375 Z M51.6650746,17.9561636 C51.7484999,16.8232698 52.3865046,14.8407058 54.9456743,14.8407058 C56.8636611,14.8407058 57.7249277,15.9161456 58.0864373,17.9561636 L51.6650746,17.9561636 L51.6650746,17.9561636 Z M65.7337542,17.9561636 C65.817974,16.8232698 66.4567732,14.8407058 69.0143538,14.8407058 C70.9323407,14.8407058 71.7951964,15.9161456 72.1559114,17.9561636 L65.7337542,17.9561636 L65.7337542,17.9561636 Z M14.1093991,1.09061253 C15.5371631,-0.363537511 17.8722763,-0.363537511 19.2992457,1.09061253 L19.2992457,1.09061253 L32.3461643,14.3770286 C33.7723393,15.8295602 33.7723393,18.2094463 32.3461643,19.6635963 L32.3461643,19.6635963 L23.2210282,28.9557527 C22.553626,29.6354889 21.6311808,30.0554688 20.6133925,30.0554688 L20.6133925,30.0554688 L12.7968414,30.0554688 C11.869629,30.0554688 11.0234584,29.7075086 10.3743303,29.1329696 L10.3743303,29.1329696 L1.06963121,19.6563134 C-0.356543738,18.2029726 -0.356543738,15.8247049 1.06963121,14.3705549 L1.06963121,14.3705549 Z M83.4429539,14.8407058 C86.001329,14.8407058 86.8355818,17.1064933 86.8355818,19.4847609 C86.8355818,21.8913509 86.029932,24.2129739 83.4429539,24.2129739 C80.996607,24.2129739 79.9684898,21.8071931 79.9684898,19.5130833 C79.9684898,17.1348156 80.8591539,14.8407058 83.4429539,14.8407058 Z M18.9361472,25.3458677 L17.6347129,26.6713533 C17.5393697,26.7684585 17.4074783,26.82834 17.26208,26.82834 L16.1473594,26.82834 C16.0146735,26.82834 15.8947,26.7789782 15.8009458,26.6964388 L14.4740867,25.3442492 C14.2714825,25.1379007 14.2714825,24.7988418 14.4740867,24.5908749 L16.3340731,22.6965147 C16.5382664,22.4885478 16.8719675,22.4885478 17.0745717,22.6965147 L18.9361472,24.5916841 C19.1403405,24.7988418 19.1403405,25.1379007 18.9361472,25.3458677 L18.9361472,25.3458677 Z M18.9361472,17.3969996 L13.731999,22.6973239 C13.6358613,22.7944291 13.5047644,22.8543106 13.3601606,22.8543106 L12.2446455,22.8543106 C12.1127541,22.8543106 11.9911916,22.8049488 11.8990265,22.7224094 L10.5713729,21.371029 C10.3679741,21.1630621 10.3679741,20.823194 10.5713729,20.6168455 L16.3340731,14.7476467 C16.5382664,14.5404889 16.8719675,14.5404889 17.0753662,14.7476467 L18.9361472,16.6428161 C19.1403405,16.8499738 19.1403405,17.1898419 18.9361472,17.3969996 L18.9361472,17.3969996 Z M18.9361472,9.44813155 L9.83007969,18.7224853 C9.73314746,18.8195905 9.6020506,18.879472 9.45744679,18.879472 L8.3427262,18.879472 C8.21083481,18.879472 8.08927227,18.8301102 7.9971072,18.7475708 L6.668659,17.3953812 C6.46526023,17.1890327 6.46526023,16.8491646 6.668659,16.6411976 L16.3340731,6.79796939 C16.5382664,6.59000247 16.8703784,6.59000247 17.0745717,6.79796939 L18.9361472,8.693948 C19.1403405,8.90110571 19.1403405,9.24097383 18.9361472,9.44813155 L18.9361472,9.44813155 Z" id="Fill-1"></path>
                    </g>
                </g>
            </g>
        </g>
    </g>
</svg>